<svg fill="none" height="25" viewBox="36 0 41 25" width="25" xmlns="http://www.w3.org/2000/svg" xmlns:xlink="http://www.w3.org/1999/xlink"><mask id="a" fill="#000" height="24" maskUnits="userSpaceOnUse" width="24" x="42.2996" y=".681152"><path d="m42.2996.681152h24v24h-24z" fill="#fff"/><path clip-rule="evenodd" d="m61.5903 19.2124c1.4698-1.6484 2.3629-3.8221 2.3629-6.2044 0-5.15109-4.1757-9.32685-9.3268-9.32685-5.151 0-9.3268 4.17576-9.3268 9.32685 0 5.151 4.1758 9.3268 9.3268 9.3268 1.7719 0 3.4284-.4941 4.8392-1.3521l2.6253.5632z" fill="#000" fill-rule="evenodd"/></mask><path d="m61.5903 19.2124-1.7391-1.5505-.7871.8828.2481 1.1564zm-2.1247 1.7703.4887-2.2781-.9068-.1945-.7925.4819zm2.6253.5632-.4887 2.2781 3.5224.7556-.7556-3.5224zm-.4676-8.5379c0 1.7887-.6682 3.4157-1.7721 4.6539l3.4782 3.1011c1.8356-2.0588 2.9538-4.7791 2.9538-7.755zm-6.9969-6.99689c3.8643 0 6.9969 3.1326 6.9969 6.99689h4.6599c0-6.43789-5.2189-11.65681-11.6568-11.65681zm-6.9968 6.99689c0-3.86429 3.1326-6.99689 6.9968-6.99689v-4.65992c-6.4378 0-11.6567 5.21892-11.6567 11.65681zm6.9968 6.9968c-3.8642 0-6.9968-3.1326-6.9968-6.9968h-4.6599c0 6.4378 5.2189 11.6567 11.6567 11.6567zm3.6286-1.0128c-1.0563.6423-2.2956 1.0128-3.6286 1.0128v4.6599c2.2109 0 4.2845-.6177 6.0499-1.6912zm.722 4.2689 2.6252.5631.9773-4.5563-2.6252-.5631zm5.392-2.2037-.5005-2.3334-4.5563.9773.5005 2.3334z" fill="#000" mask="url(#a)"/></svg>